<?xml version="1.0" standalone="no"?>
<!DOCTYPE svg PUBLIC "-//W3C//DTD SVG 20010904//EN"
 "http://www.w3.org/TR/2001/REC-SVG-20010904/DTD/svg10.dtd">
<svg version="1.0" xmlns="http://www.w3.org/2000/svg"
 width="700.000000pt" height="700.000000pt" viewBox="0 0 700.000000 700.000000"
 preserveAspectRatio="xMidYMid meet">
<metadata>
Created by potrace 1.11, written by Peter Selinger 2001-2013
</metadata>
<g transform="translate(0.000000,700.000000) scale(0.100000,-0.100000)"
fill="#000000" stroke="none">
<path d="M656 5962 c-6 -11 -3 -33 8 -51 6 -8 5 -12 0 -8 -12 7 -12 -853 0
-872 6 -9 5 -12 -2 -7 -6 4 -10 -1 -9 -13 1 -11 3 -18 6 -16 2 3 10 0 18 -6 9
-8 13 -8 13 -1 0 7 10 8 30 2 17 -5 30 -6 30 -2 0 11 114 8 122 -3 5 -6 8 -6
8 1 0 6 13 9 30 6 17 -2 38 2 47 9 14 12 16 12 8 0 -6 -11 -1 -13 24 -9 18 3
34 2 36 -2 2 -3 31 -3 64 0 35 3 65 2 71 -4 6 -6 10 -6 10 -1 0 11 61 12 78 1
7 -4 12 -3 12 1 0 10 41 10 58 -1 7 -4 12 -4 12 1 0 10 62 9 78 -1 7 -4 12 -4
12 1 0 9 113 8 129 -1 6 -4 11 -4 11 1 0 8 97 9 105 1 2 -2 31 -1 65 2 35 3
64 2 70 -4 6 -6 10 -6 10 0 0 10 61 11 78 0 7 -4 12 -3 12 1 0 10 41 10 58 -1
7 -4 12 -3 12 3 0 6 11 6 30 1 21 -6 30 -5 30 3 0 7 5 4 11 -5 5 -9 8 -38 5
-63 -2 -25 -1 -43 3 -40 4 2 8 -2 8 -10 0 -8 -4 -12 -7 -10 -4 3 -7 -6 -7 -20
0 -14 3 -22 8 -19 5 3 7 -1 4 -8 -11 -30 -12 -78 -1 -78 6 0 6 -4 -2 -9 -16
-9 -15 -20 1 -40 9 -12 9 -13 0 -7 -7 4 -13 3 -13 -3 0 -5 5 -13 10 -16 7 -4
7 -12 0 -25 -7 -13 -6 -20 3 -23 9 -4 9 -6 0 -6 -7 -1 -13 -8 -13 -17 0 -8 4
-13 9 -9 6 3 6 -7 0 -27 -11 -40 -11 -40 -1 -34 5 3 9 -1 9 -9 0 -8 -3 -12 -6
-10 -4 2 -6 -21 -6 -50 0 -29 3 -51 6 -49 3 2 6 -3 6 -11 0 -8 -4 -12 -7 -10
-4 3 -7 -6 -7 -20 0 -14 3 -22 8 -19 5 3 7 -1 4 -8 -11 -30 -12 -78 -1 -78 7
0 8 -3 1 -8 -13 -8 -13 -22 -1 -41 6 -10 5 -12 -2 -7 -7 4 -12 3 -12 -3 0 -5
5 -13 10 -16 7 -4 7 -12 0 -25 -7 -13 -6 -20 3 -23 9 -4 9 -6 0 -6 -7 -1 -13
-8 -13 -17 0 -8 4 -13 9 -9 6 3 6 -7 0 -27 -11 -40 -11 -40 -1 -34 5 3 9 -1 9
-9 0 -8 -3 -12 -6 -10 -4 2 -6 -21 -6 -50 0 -29 3 -51 6 -49 3 2 6 -3 6 -11 0
-8 -4 -12 -7 -10 -4 3 -7 -6 -7 -20 -1 -14 3 -22 8 -19 5 3 6 -1 4 -9 -9 -23
-12 -146 -3 -141 4 3 4 -5 -1 -18 -4 -13 -5 -35 0 -51 4 -15 4 -25 1 -23 -4 2
-7 -20 -7 -49 0 -29 3 -51 6 -49 3 2 6 -3 6 -11 0 -8 -3 -12 -6 -11 -3 2 -6
-22 -6 -54 0 -32 3 -56 7 -54 4 3 4 -5 -1 -18 -4 -13 -5 -35 0 -51 4 -15 4
-25 1 -23 -4 2 -7 -20 -7 -49 0 -29 3 -51 6 -49 3 2 6 -3 6 -11 0 -8 -4 -12
-7 -10 -4 3 -7 -6 -7 -20 0 -14 3 -22 8 -20 4 3 4 -9 -2 -27 -11 -40 -11 -40
-1 -34 5 3 9 -1 9 -9 0 -8 -3 -12 -6 -10 -4 2 -6 -21 -6 -50 0 -29 3 -51 6
-49 3 2 6 -3 6 -11 0 -8 -4 -12 -7 -10 -4 3 -7 -6 -7 -20 -1 -14 3 -22 8 -19
5 3 7 -1 4 -8 -11 -30 -12 -78 -1 -78 7 0 8 -3 1 -8 -13 -8 -13 -22 -1 -41 6
-10 5 -12 -2 -7 -7 4 -12 3 -12 -3 0 -5 5 -13 10 -16 7 -4 7 -12 0 -25 -7 -13
-6 -20 3 -23 9 -4 9 -6 0 -6 -7 -1 -13 -8 -13 -17 0 -8 4 -13 9 -9 6 3 6 -7 0
-27 -11 -40 -11 -40 -1 -34 5 3 9 -1 9 -9 0 -8 -3 -12 -6 -10 -4 2 -6 -21 -6
-50 0 -29 3 -51 6 -49 3 2 6 -3 6 -11 0 -8 -4 -12 -7 -10 -4 3 -7 -6 -7 -20
-1 -14 3 -22 8 -19 5 3 7 -1 4 -8 -11 -30 -12 -78 -1 -78 7 0 8 -3 1 -8 -13
-8 -13 -22 -1 -41 6 -10 5 -12 -2 -7 -7 4 -12 3 -12 -3 0 -5 5 -13 10 -16 7
-4 7 -12 0 -25 -7 -13 -6 -20 3 -23 9 -4 9 -6 0 -6 -7 -1 -13 -8 -13 -17 0 -8
4 -13 9 -9 6 3 6 -7 0 -27 -11 -40 -11 -40 -1 -34 5 3 9 -1 9 -9 0 -8 -3 -12
-6 -10 -4 2 -6 -21 -6 -50 0 -29 3 -51 6 -49 3 2 6 -3 6 -11 0 -8 -4 -12 -7
-10 -4 3 -7 -6 -8 -20 0 -14 4 -22 9 -19 5 3 7 -1 4 -8 -11 -30 -12 -78 -1
-78 7 0 8 -3 1 -8 -13 -8 -13 -22 -1 -41 6 -10 5 -12 -2 -7 -7 4 -12 3 -12 -3
0 -5 5 -13 10 -16 7 -4 7 -12 0 -25 -7 -13 -6 -20 3 -23 9 -4 9 -6 0 -6 -7 -1
-13 -8 -13 -17 0 -8 4 -13 9 -9 6 3 6 -7 0 -27 -11 -40 -11 -40 -1 -34 5 3 9
-1 9 -9 0 -8 -3 -12 -6 -10 -4 2 -6 -21 -6 -50 0 -29 3 -51 6 -49 3 2 6 -3 6
-11 0 -8 -4 -12 -7 -10 -4 3 -7 -6 -7 -20 -1 -14 3 -22 8 -19 5 3 7 -1 4 -8
-11 -30 -12 -78 -1 -78 7 0 8 -3 1 -8 -13 -8 -13 -22 -1 -41 6 -10 5 -12 -2
-7 -7 4 -12 3 -12 -3 0 -5 5 -13 10 -16 7 -4 7 -13 0 -26 -8 -14 -7 -19 2 -19
10 0 10 -2 0 -9 -8 -4 -14 -12 -14 -16 0 -4 6 -12 14 -16 8 -6 9 -9 1 -9 -13
0 -12 -18 1 -39 6 -10 5 -12 -2 -7 -7 4 -12 3 -12 -3 0 -5 5 -13 10 -16 7 -4
7 -12 0 -25 -7 -13 -6 -20 3 -23 9 -4 9 -6 0 -6 -7 -1 -13 -8 -13 -17 0 -8 4
-13 9 -9 6 3 6 -7 0 -27 -11 -40 -11 -40 -1 -34 5 3 9 -1 9 -9 0 -8 -3 -12 -6
-10 -4 2 -6 -21 -6 -50 0 -29 3 -51 6 -49 3 2 6 -3 6 -11 0 -8 -4 -12 -7 -10
-4 3 -7 -6 -7 -20 0 -14 3 -22 8 -19 5 3 7 -1 4 -8 -11 -30 -12 -78 -1 -78 7
0 8 -3 1 -8 -13 -8 -13 -22 -1 -41 6 -10 5 -12 -2 -7 -7 4 -12 3 -12 -3 0 -5
5 -13 10 -16 7 -4 7 -13 0 -26 -8 -14 -7 -19 2 -19 8 0 9 -3 3 -8 -37 -27 2
-29 625 -29 451 0 640 3 642 11 2 6 4 997 3 2203 l0 2191 32 4 c18 2 38 -1 43
-6 6 -6 10 -6 10 -1 0 11 61 12 78 1 7 -4 12 -4 12 1 0 9 113 8 129 -1 6 -4
11 -4 11 1 0 8 97 9 105 1 3 -2 29 -1 60 2 32 4 59 2 65 -4 7 -7 10 -4 10 9 0
15 2 17 9 7 5 -9 23 -13 47 -11 22 2 45 0 51 -4 6 -4 15 -3 18 3 5 8 11 7 21
-1 11 -9 14 -8 14 7 0 14 2 16 9 6 5 -9 23 -13 47 -11 22 2 45 0 51 -4 6 -4
15 -3 18 3 5 8 11 7 21 -1 11 -9 14 -8 14 7 0 14 2 16 9 6 5 -9 23 -13 47 -11
22 2 45 0 51 -4 6 -4 15 -3 18 3 5 8 11 7 21 -1 11 -9 14 -8 14 7 0 14 2 16 9
6 5 -9 23 -13 49 -11 23 2 43 1 46 -2 3 -3 30 -2 61 1 32 4 59 2 65 -4 6 -6
10 -7 10 0 0 5 12 10 28 9 17 0 27 6 28 15 1 8 3 20 4 25 1 6 2 25 2 43 0 17
6 32 12 32 6 0 4 5 -4 10 -8 5 -10 10 -4 10 6 0 11 15 12 33 0 17 3 48 6 67 5
31 13 99 19 155 2 11 6 26 10 33 5 7 3 12 -5 12 -8 0 -9 3 -3 8 6 4 10 24 10
45 0 20 2 37 5 37 6 0 13 69 13 122 -1 15 2 26 6 23 4 -2 7 13 6 33 -1 20 4
40 9 44 7 5 6 8 -2 8 -8 0 -10 5 -5 13 4 6 8 28 9 47 1 22 6 34 13 32 8 -2 9
3 3 14 -5 9 -6 33 -2 53 3 20 5 42 2 49 -3 9 -446 12 -2057 12 -1130 0 -2056
-4 -2059 -8z"/>
<path d="M3532 3465 c-3 -5 -6 -204 -6 -442 l-1 -433 33 -1 c17 -1 38 -2 45
-3 6 -1 15 3 19 9 5 6 8 6 8 0 0 -8 130 -12 150 -5 3 2 9 2 15 1 32 -7 97 -6
101 0 2 5 10 6 17 4 22 -9 138 -11 143 -4 2 5 10 6 17 4 22 -9 138 -11 143 -4
2 5 10 6 17 4 22 -9 138 -11 143 -4 2 5 10 6 17 4 28 -10 107 -11 111 -1 3 7
5 7 5 1 1 -8 131 -12 151 -5 3 2 9 2 13 1 42 -8 67 -6 71 3 2 6 5 7 5 1 1 -8
131 -12 151 -5 3 2 9 2 13 1 42 -8 67 -6 71 3 2 6 5 7 5 1 1 -8 131 -12 151
-5 3 2 9 2 13 1 42 -8 67 -6 71 3 2 6 5 7 5 1 1 -8 131 -12 151 -5 3 2 9 2 13
1 42 -8 67 -6 71 3 2 6 5 7 5 1 1 -8 131 -12 151 -5 3 2 10 1 15 0 26 -6 177
-4 181 2 3 4 10 5 17 3 22 -9 138 -11 143 -4 2 5 10 6 17 4 22 -9 138 -11 143
-4 2 5 10 6 17 4 23 -9 138 -11 143 -3 3 5 9 6 14 3 9 -5 164 -9 185 -5 6 1
14 2 18 1 42 -8 67 -6 71 3 2 6 5 7 5 1 1 -11 137 -12 147 -2 3 3 16 2 28 -2
22 -8 68 -6 93 3 8 3 12 2 9 -2 -5 -9 97 -8 112 2 6 3 12 0 15 -6 2 -7 5 190
5 437 l0 450 -1730 0 c-1115 0 -1732 -3 -1736 -10z"/>
</g>
</svg>
